<svg xmlns="http://www.w3.org/2000/svg" xmlns:xlink="http://www.w3.org/1999/xlink" width="500" zoomAndPan="magnify" viewBox="0 0 375 374.999991" height="500" preserveAspectRatio="xMidYMid meet" version="1.0"><defs><g/><clipPath id="2f421cf69b"><path d="M 100.625 124.296875 L 230.375 124.296875 L 230.375 180.546875 L 100.625 180.546875 Z M 100.625 124.296875 " clip-rule="nonzero"/></clipPath></defs><rect x="-37.5" width="450" fill="#ffffff" y="-37.499999" height="449.999989" fill-opacity="1"/><rect x="-37.5" width="450" fill="#ffffff" y="-37.499999" height="449.999989" fill-opacity="1"/><g clip-path="url(#2f421cf69b)"><path fill="#00adef" d="M 152.1875 130.820312 L 152.1875 142.640625 L 100.675781 146.554688 L 166.609375 146.554688 L 152.1875 148.902344 L 152.1875 154.21875 L 111.933594 157.277344 L 177.867188 157.277344 L 152.1875 160.648438 L 152.1875 169.382812 L 114.476562 172.25 L 180.410156 172.25 L 152.1875 175.234375 C 152.1875 178.1875 154.578125 180.582031 157.53125 180.582031 L 224.992188 180.582031 C 227.945312 180.582031 230.339844 178.1875 230.339844 175.234375 L 230.339844 130.820312 L 191.261719 157.902344 Z M 230.339844 124.296875 L 152.1875 124.296875 L 191.261719 151.382812 Z M 230.339844 124.296875 " fill-opacity="1" fill-rule="nonzero"/></g><g fill="#1c2a4e" fill-opacity="1"><g transform="translate(99.491716, 226.44169)"><g><path d="M 13.671875 0.515625 C 11.515625 0.515625 9.519531 -0.0625 7.6875 -1.21875 C 5.851562 -2.382812 4.375 -4.15625 3.25 -6.53125 C 2.132812 -8.914062 1.578125 -11.835938 1.578125 -15.296875 C 1.578125 -18.441406 2.128906 -21.140625 3.234375 -23.390625 C 4.347656 -25.648438 5.851562 -27.363281 7.75 -28.53125 C 9.65625 -29.695312 11.785156 -30.28125 14.140625 -30.28125 C 15.578125 -30.28125 16.789062 -30.140625 17.78125 -29.859375 C 18.78125 -29.585938 19.566406 -29.269531 20.140625 -28.90625 C 20.710938 -28.539062 21.257812 -28.117188 21.78125 -27.640625 L 19.390625 -23.15625 C 18.890625 -23.695312 18.445312 -24.113281 18.0625 -24.40625 C 17.6875 -24.695312 17.203125 -24.929688 16.609375 -25.109375 C 16.015625 -25.285156 15.265625 -25.375 14.359375 -25.375 C 12.929688 -25.375 11.703125 -24.957031 10.671875 -24.125 C 9.648438 -23.289062 8.867188 -22.132812 8.328125 -20.65625 C 7.785156 -19.1875 7.515625 -17.5 7.515625 -15.59375 C 7.515625 -13.195312 7.796875 -11.148438 8.359375 -9.453125 C 8.921875 -7.765625 9.679688 -6.492188 10.640625 -5.640625 C 11.609375 -4.785156 12.691406 -4.359375 13.890625 -4.359375 C 15.148438 -4.359375 16.265625 -4.535156 17.234375 -4.890625 C 18.210938 -5.242188 18.960938 -5.691406 19.484375 -6.234375 L 21.828125 -2 C 20.960938 -1.289062 19.910156 -0.691406 18.671875 -0.203125 C 17.441406 0.273438 15.773438 0.515625 13.671875 0.515625 Z M 13.671875 0.515625 "/></g></g></g><g fill="#1c2a4e" fill-opacity="1"><g transform="translate(123.277537, 226.44169)"><g><path d="M 17.90625 -4.703125 L 17.90625 0 L 3.59375 0 L 3.59375 -29.78125 L 9.015625 -29.78125 L 9.015625 -4.703125 Z M 17.90625 -4.703125 "/></g></g></g><g fill="#1c2a4e" fill-opacity="1"><g transform="translate(143.561746, 226.44169)"><g><path d="M 3.453125 -29.78125 L 8.921875 -29.78125 L 8.921875 0 L 3.453125 0 Z M 3.453125 -29.78125 "/></g></g></g><g fill="#1c2a4e" fill-opacity="1"><g transform="translate(157.227059, 226.44169)"><g><path d="M 18.625 0 L 9.015625 -14.296875 L 9.015625 0 L 3.59375 0 L 3.59375 -29.78125 L 9.015625 -29.78125 L 9.015625 -14.953125 L 18.5 -29.78125 L 24.78125 -29.78125 L 14.625 -15 L 25.453125 0 Z M 18.625 0 "/></g></g></g><g fill="#1c2a4e" fill-opacity="1"><g transform="translate(183.959362, 226.44169)"><g><path d="M 28.5 -30.28125 L 28.5 0 L 23.203125 0 L 23.203125 -12.765625 L 23.390625 -17.8125 L 21.875 -15.5 L 16.015625 -8.625 L 10.171875 -15.5 L 8.65625 -17.8125 L 8.890625 -12.765625 L 8.890625 0 L 3.59375 0 L 3.59375 -30.28125 L 4.015625 -30.28125 L 16.0625 -16.078125 L 28.03125 -30.28125 Z M 28.5 -30.28125 "/></g></g></g><g fill="#1c2a4e" fill-opacity="1"><g transform="translate(217.310559, 226.44169)"><g><path d="M 17.46875 -4.3125 L 6.828125 -4.3125 L 5.25 0 L -0.71875 0 L 11.875 -30.28125 L 12.296875 -30.28125 L 24.953125 0 L 19.140625 0 Z M 15.890625 -8.453125 L 12.765625 -16.578125 L 12.046875 -18.96875 L 11.359375 -16.578125 L 8.375 -8.453125 Z M 15.890625 -8.453125 "/></g></g></g><g fill="#1c2a4e" fill-opacity="1"><g transform="translate(242.804476, 226.44169)"><g><path d="M 3.453125 -29.78125 L 8.921875 -29.78125 L 8.921875 0 L 3.453125 0 Z M 3.453125 -29.78125 "/></g></g></g><g fill="#1c2a4e" fill-opacity="1"><g transform="translate(256.469786, 226.44169)"><g><path d="M 17.90625 -4.703125 L 17.90625 0 L 3.59375 0 L 3.59375 -29.78125 L 9.015625 -29.78125 L 9.015625 -4.703125 Z M 17.90625 -4.703125 "/></g></g></g></svg>